<?xml version="1.0" encoding="UTF-8"?>
<svg width="8px" height="14px" viewBox="0 0 8 14" version="1.1" xmlns="http://www.w3.org/2000/svg" xmlns:xlink="http://www.w3.org/1999/xlink">
    <!-- Generator: Sketch 63.1 (92452) - https://sketch.com -->
    <title>Path</title>
    <desc>Created with Sketch.</desc>
    <g id="Page-1" stroke="none" stroke-width="1" fill="none" fill-rule="evenodd">
        <g id="Desktop-HD" transform="translate(-195.000000, -4298.000000)" fill="#F17570" fill-rule="nonzero">
            <g id="Group-5" transform="translate(80.000000, 3720.000000)">
                <path d="M122.782789,584.45372 L116.722952,578.223657 C116.582796,578.079447 116.395699,578 116.196202,578 C115.996706,578 115.809609,578.079447 115.669453,578.223657 L115.223188,578.682352 C114.9328,578.981244 114.9328,579.467029 115.223188,579.765465 L120.311781,584.997098 L115.217542,590.234535 C115.077385,590.378745 115,590.570987 115,590.775977 C115,590.981195 115.077385,591.173438 115.217542,591.317762 L115.663807,591.776343 C115.804074,591.920553 115.99106,592 116.190556,592 C116.390053,592 116.577149,591.920553 116.717306,591.776343 L122.782789,585.540589 C122.923277,585.395924 123.000441,585.202771 123,584.997439 C123.000441,584.791311 122.923277,584.598272 122.782789,584.45372 Z" id="Path"></path>
            </g>
        </g>
    </g>
</svg>