<?xml version="1.0" encoding="UTF-8"?>
<svg width="1180px" height="133px" viewBox="0 0 1180 133" version="1.1" xmlns="http://www.w3.org/2000/svg" xmlns:xlink="http://www.w3.org/1999/xlink">
    <!-- Generator: Sketch 63.1 (92452) - https://sketch.com -->
    <title>Коддовголiття</title>
    <desc>Created with Sketch.</desc>
    <g id="Page-1" stroke="none" stroke-width="1" fill="none" fill-rule="evenodd" fill-opacity="0" opacity="0.1003348229">
        <g id="Desktop-HD" transform="translate(-131.000000, -274.000000)" fill="#FFFFFF" fill-rule="nonzero" stroke="#FFFFFF" stroke-width="2">
            <g id="Group-2">
                <path d="M165.1255,390 L165.1255,354.833 L174.2995,354.833 L192.9255,390 L229.8995,390 L201.1265,339.96 L230.0385,292.7 L195.8445,292.7 L175.1335,328.979 L165.1255,328.979 L165.1255,292.7 L132.3215,292.7 L132.3215,390 L165.1255,390 Z M277.4375,391.39 C285.962833,391.39 293.584667,389.698833 300.303,386.3165 C307.021333,382.934167 312.257,378.2545 316.01,372.2775 C319.763,366.3005 321.6395,359.512667 321.6395,351.914 C321.6395,344.315333 319.763,337.5275 316.01,331.5505 C312.257,325.5735 307.021333,320.917 300.303,317.581 C293.584667,314.245 285.962833,312.577 277.4375,312.577 C269.004833,312.577 261.429333,314.245 254.711,317.581 C247.992667,320.917 242.733833,325.5735 238.9345,331.5505 C235.135167,337.5275 233.2355,344.315333 233.2355,351.914 C233.2355,359.512667 235.135167,366.3005 238.9345,372.2775 C242.733833,378.2545 247.992667,382.934167 254.711,386.3165 C261.429333,389.698833 269.004833,391.39 277.4375,391.39 Z M277.4375,366.926 C273.8235,366.926 270.858167,365.6055 268.5415,362.9645 C266.224833,360.3235 265.0665,356.64 265.0665,351.914 C265.0665,347.188 266.224833,343.527667 268.5415,340.933 C270.858167,338.338333 273.8235,337.041 277.4375,337.041 C281.0515,337.041 284.016833,338.338333 286.3335,340.933 C288.650167,343.527667 289.8085,347.188 289.8085,351.914 C289.8085,356.64 288.650167,360.3235 286.3335,362.9645 C284.016833,365.6055 281.0515,366.926 277.4375,366.926 Z M354.8605,405.012 L354.8605,390 L396.8385,390 L396.8385,405.012 L425.8895,405.012 L425.8895,365.397 L415.7425,365.397 L415.7425,313.967 L341.3775,313.967 L340.4045,340.794 C340.1265,348.763333 339.107167,354.856167 337.3465,359.0725 C335.585833,363.288833 332.4815,365.397 328.0335,365.397 L328.0335,365.397 L325.8095,365.397 L325.8095,405.012 L354.8605,405.012 Z M384.4675,365.397 L363.8955,365.397 C365.656167,363.173 366.837667,360.369833 367.44,356.9875 C368.042333,353.605167 368.436167,348.995 368.6215,343.157 L368.6215,343.157 L368.7605,338.431 L384.4675,338.431 L384.4675,365.397 Z M500.2545,405.012 L500.2545,390 L542.2325,390 L542.2325,405.012 L571.2835,405.012 L571.2835,365.397 L561.1365,365.397 L561.1365,313.967 L486.7715,313.967 L485.7985,340.794 C485.5205,348.763333 484.501167,354.856167 482.7405,359.0725 C480.979833,363.288833 477.8755,365.397 473.4275,365.397 L473.4275,365.397 L471.2035,365.397 L471.2035,405.012 L500.2545,405.012 Z M529.8615,365.397 L509.2895,365.397 C511.050167,363.173 512.231667,360.369833 512.834,356.9875 C513.436333,353.605167 513.830167,348.995 514.0155,343.157 L514.0155,343.157 L514.1545,338.431 L529.8615,338.431 L529.8615,365.397 Z M619.6555,391.39 C628.180833,391.39 635.802667,389.698833 642.521,386.3165 C649.239333,382.934167 654.475,378.2545 658.228,372.2775 C661.981,366.3005 663.8575,359.512667 663.8575,351.914 C663.8575,344.315333 661.981,337.5275 658.228,331.5505 C654.475,325.5735 649.239333,320.917 642.521,317.581 C635.802667,314.245 628.180833,312.577 619.6555,312.577 C611.222833,312.577 603.647333,314.245 596.929,317.581 C590.210667,320.917 584.951833,325.5735 581.1525,331.5505 C577.353167,337.5275 575.4535,344.315333 575.4535,351.914 C575.4535,359.512667 577.353167,366.3005 581.1525,372.2775 C584.951833,378.2545 590.210667,382.934167 596.929,386.3165 C603.647333,389.698833 611.222833,391.39 619.6555,391.39 Z M619.6555,366.926 C616.0415,366.926 613.076167,365.6055 610.7595,362.9645 C608.442833,360.3235 607.2845,356.64 607.2845,351.914 C607.2845,347.188 608.442833,343.527667 610.7595,340.933 C613.076167,338.338333 616.0415,337.041 619.6555,337.041 C623.2695,337.041 626.234833,338.338333 628.5515,340.933 C630.868167,343.527667 632.0265,347.188 632.0265,351.914 C632.0265,356.64 630.868167,360.3235 628.5515,362.9645 C626.234833,365.6055 623.2695,366.926 619.6555,366.926 Z M718.4845,390 C729.0485,390 737.064167,388.030833 742.5315,384.0925 C747.998833,380.154167 750.7325,374.71 750.7325,367.76 C750.7325,359.142 746.5625,353.257667 738.2225,350.107 C741.5585,348.346333 744.106833,346.076 745.8675,343.296 C747.628167,340.516 748.5085,337.365333 748.5085,333.844 C748.5085,327.542667 745.682167,322.6545 740.0295,319.1795 C734.376833,315.7045 726.453833,313.967 716.2605,313.967 L716.2605,313.967 L673.5875,313.967 L673.5875,390 L718.4845,390 Z M713.4805,343.991 L701.1095,343.991 L701.1095,333.427 L713.4805,333.427 C715.889833,333.427 717.627333,333.844 718.693,334.678 C719.758667,335.512 720.2915,336.809333 720.2915,338.57 C720.2915,342.184 718.021167,343.991 713.4805,343.991 L713.4805,343.991 Z M715.7045,370.54 L701.1095,370.54 L701.1095,359.42 L715.7045,359.42 C720.245167,359.42 722.5155,361.227 722.5155,364.841 C722.5155,368.640333 720.245167,370.54 715.7045,370.54 L715.7045,370.54 Z M792.2935,390 L792.2935,338.431 L827.4605,338.431 L827.4605,313.967 L761.0185,313.967 L761.0185,390 L792.2935,390 Z M875.6935,391.39 C884.218833,391.39 891.840667,389.698833 898.559,386.3165 C905.277333,382.934167 910.513,378.2545 914.266,372.2775 C918.019,366.3005 919.8955,359.512667 919.8955,351.914 C919.8955,344.315333 918.019,337.5275 914.266,331.5505 C910.513,325.5735 905.277333,320.917 898.559,317.581 C891.840667,314.245 884.218833,312.577 875.6935,312.577 C867.260833,312.577 859.685333,314.245 852.967,317.581 C846.248667,320.917 840.989833,325.5735 837.1905,331.5505 C833.391167,337.5275 831.4915,344.315333 831.4915,351.914 C831.4915,359.512667 833.391167,366.3005 837.1905,372.2775 C840.989833,378.2545 846.248667,382.934167 852.967,386.3165 C859.685333,389.698833 867.260833,391.39 875.6935,391.39 Z M875.6935,366.926 C872.0795,366.926 869.114167,365.6055 866.7975,362.9645 C864.480833,360.3235 863.3225,356.64 863.3225,351.914 C863.3225,347.188 864.480833,343.527667 866.7975,340.933 C869.114167,338.338333 872.0795,337.041 875.6935,337.041 C879.3075,337.041 882.272833,338.338333 884.5895,340.933 C886.906167,343.527667 888.0645,347.188 888.0645,351.914 C888.0645,356.64 886.906167,360.3235 884.5895,362.9645 C882.272833,365.6055 879.3075,366.926 875.6935,366.926 Z M938.3825,392.085 C945.0545,392.085 950.313333,390.393833 954.159,387.0115 C958.004667,383.629167 960.7615,378.787333 962.4295,372.486 C964.0975,366.184667 965.116833,358.122667 965.4875,348.3 L965.4875,348.3 L965.9045,338.431 L980.2215,338.431 L980.2215,390 L1011.6355,390 L1011.6355,313.967 L939.0775,313.967 L937.9655,347.049 C937.6875,353.443 936.946167,358.006833 935.7415,360.7405 C934.536833,363.474167 932.034833,364.841 928.2355,364.841 C927.586833,364.841 926.521167,364.748333 925.0385,364.563 L925.0385,364.563 L923.7875,390 C929.3475,391.39 934.2125,392.085 938.3825,392.085 Z M1041.6595,307.851 C1047.40483,307.851 1051.99183,306.298833 1055.4205,303.1945 C1058.84917,300.090167 1060.5635,296.128667 1060.5635,291.31 C1060.5635,286.769333 1058.84917,283.062667 1055.4205,280.19 C1051.99183,277.317333 1047.40483,275.881 1041.6595,275.881 C1036.00683,275.881 1031.443,277.386833 1027.968,280.3985 C1024.493,283.410167 1022.7555,287.232667 1022.7555,291.866 C1022.7555,296.499333 1024.493,300.321833 1027.968,303.3335 C1031.443,306.345167 1036.00683,307.851 1041.6595,307.851 Z M1057.3665,390 L1057.3665,313.967 L1025.9525,313.967 L1025.9525,390 L1057.3665,390 Z M1120.4725,390 L1120.4725,338.431 L1143.6855,338.431 L1143.6855,313.967 L1065.9845,313.967 L1065.9845,338.431 L1089.1975,338.431 L1089.1975,390 L1120.4725,390 Z M1201.5095,390 L1201.5095,338.431 L1224.7225,338.431 L1224.7225,313.967 L1147.0215,313.967 L1147.0215,338.431 L1170.2345,338.431 L1170.2345,390 L1201.5095,390 Z M1261.2795,390 L1273.6505,370.679 L1281.2955,370.679 L1281.2955,390 L1309.0955,390 L1309.0955,313.967 L1269.0635,313.967 C1256.8315,313.967 1247.19417,316.561667 1240.1515,321.751 C1233.10883,326.940333 1229.5875,334.122 1229.5875,343.296 C1229.5875,348.485333 1230.86167,353.026 1233.41,356.918 C1235.95833,360.81 1239.64183,363.914333 1244.4605,366.231 L1244.4605,366.231 L1228.0585,390 L1261.2795,390 Z M1281.2955,351.08 L1269.7585,351.08 C1267.07117,351.08 1265.05567,350.547167 1263.712,349.4815 C1262.36833,348.415833 1261.6965,346.724667 1261.6965,344.408 C1261.6965,340.330667 1264.38383,338.292 1269.7585,338.292 L1269.7585,338.292 L1281.2955,338.292 L1281.2955,351.08 Z" id="Коддовголiття"></path>
            </g>
        </g>
    </g>
</svg>