<?xml version="1.0" encoding="UTF-8"?>
<svg width="980px" height="601px" viewBox="0 0 980 601" version="1.1" xmlns="http://www.w3.org/2000/svg" xmlns:xlink="http://www.w3.org/1999/xlink">
    <!-- Generator: Sketch 63.1 (92452) - https://sketch.com -->
    <title>Омега-3</title>
    <desc>Created with Sketch.</desc>
    <g id="Page-1" stroke="none" stroke-width="1" fill="none" fill-rule="evenodd" fill-opacity="0" opacity="0.100000001">
        <g id="Desktop-HD" transform="translate(-460.000000, -752.000000)" fill="#FFFFFF" fill-rule="nonzero" stroke="#FFFFFF" stroke-width="2">
            <g id="Group-3" transform="translate(0.000000, 659.000000)">
                <g id="Group-7">
                    <g id="Омега-3" transform="translate(456.380000, 93.512656)">
                        <path d="M24.7,87.4473438 C29.22,87.4473438 33.28,86.5073438 36.88,84.6273437 C40.48,82.7473437 43.3,80.1373438 45.34,76.7973438 C47.38,73.4573438 48.4,69.6873438 48.4,65.4873438 C48.4,61.2873438 47.38,57.5173437 45.34,54.1773438 C43.3,50.8373438 40.48,48.2273438 36.88,46.3473438 C33.28,44.4673438 29.22,43.5273438 24.7,43.5273438 C20.18,43.5273438 16.12,44.4673438 12.52,46.3473438 C8.92,48.2273438 6.1,50.8373438 4.06,54.1773438 C2.02,57.5173437 1,61.2873438 1,65.4873438 C1,69.6873438 2.02,73.4573438 4.06,76.7973438 C6.1,80.1373438 8.92,82.7473437 12.52,84.6273437 C16.12,86.5073438 20.18,87.4473438 24.7,87.4473438 Z M24.7,75.9873438 C22.94,75.9873438 21.35,75.5573438 19.93,74.6973438 C18.51,73.8373438 17.38,72.6173438 16.54,71.0373438 C15.7,69.4573438 15.28,67.6073438 15.28,65.4873438 C15.28,63.3673438 15.7,61.5173437 16.54,59.9373437 C17.38,58.3573437 18.51,57.1373438 19.93,56.2773438 C21.35,55.4173438 22.94,54.9873438 24.7,54.9873438 C26.46,54.9873438 28.05,55.4173438 29.47,56.2773438 C30.89,57.1373438 32.02,58.3573437 32.86,59.9373437 C33.7,61.5173437 34.12,63.3673438 34.12,65.4873438 C34.12,67.6073438 33.7,69.4573438 32.86,71.0373438 C32.02,72.6173438 30.89,73.8373438 29.47,74.6973438 C28.05,75.5573438 26.46,75.9873438 24.7,75.9873438 Z M65.14,86.4873438 L65.14,71.4873438 L71.86,83.9073438 L77.56,83.9073438 L84.52,71.7873438 L84.58,86.4873438 L96.76,86.4873438 L96.64,53.6673438 L83.92,53.6673438 L75.1,68.9673438 L67.3,53.6673438 L52.96,53.6673438 L52.96,86.4873438 L65.14,86.4873438 Z M120.76,87.0873438 C127.12,87.0873438 131.9,85.3273438 135.1,81.8073438 L135.1,81.8073438 L128.02,74.6673438 C126.86,75.5473438 125.79,76.1673438 124.81,76.5273438 C123.83,76.8873437 122.62,77.0673437 121.18,77.0673437 C119.5,77.0673437 118.1,76.7373438 116.98,76.0773438 C115.86,75.4173438 115.06,74.4673438 114.58,73.2273438 L114.58,73.2273438 L137.38,73.2273438 C137.5,71.3073438 137.56,70.2473438 137.56,70.0473438 C137.56,66.4873438 136.75,63.4273438 135.13,60.8673438 C133.51,58.3073438 131.33,56.3673438 128.59,55.0473438 C125.85,53.7273437 122.82,53.0673437 119.5,53.0673437 C115.98,53.0673437 112.81,53.7873437 109.99,55.2273438 C107.17,56.6673438 104.95,58.6773438 103.33,61.2573437 C101.71,63.8373437 100.9,66.7673437 100.9,70.0473438 C100.9,73.2873438 101.72,76.2073438 103.36,78.8073438 C105,81.4073437 107.32,83.4373437 110.32,84.8973438 C113.32,86.3573438 116.8,87.0873438 120.76,87.0873438 Z M124.9,66.6873437 L114.34,66.6873437 C114.62,65.2873438 115.22,64.2073438 116.14,63.4473438 C117.06,62.6873438 118.22,62.3073438 119.62,62.3073438 C121.02,62.3073438 122.18,62.6973438 123.1,63.4773438 C124.02,64.2573438 124.62,65.3273437 124.9,66.6873437 L124.9,66.6873437 Z M155.92,86.4873438 L155.92,64.2273438 L171.1,64.2273438 L171.1,53.6673438 L142.42,53.6673438 L142.42,86.4873438 L155.92,86.4873438 Z M184.84,87.0873438 C189.48,87.0873438 192.58,85.4473438 194.14,82.1673438 L194.14,82.1673438 L194.14,86.4873438 L206.74,86.4873438 L206.74,68.8473438 C206.74,63.4873438 205.22,59.5173437 202.18,56.9373437 C199.14,54.3573437 194.74,53.0673437 188.98,53.0673437 C186.34,53.0673437 183.69,53.3973437 181.03,54.0573438 C178.37,54.7173438 176.1,55.6273438 174.22,56.7873438 L174.22,56.7873438 L178.54,65.7273438 C179.62,64.9273438 180.92,64.2973437 182.44,63.8373438 C183.96,63.3773438 185.46,63.1473438 186.94,63.1473438 C190.62,63.1473438 192.68,64.4273438 193.12,66.9873438 L193.12,66.9873438 L187.66,66.9873438 C182.62,66.9873438 178.86,67.8273437 176.38,69.5073437 C173.9,71.1873437 172.66,73.6473438 172.66,76.8873438 C172.66,78.8073438 173.13,80.5373438 174.07,82.0773438 C175.01,83.6173438 176.39,84.8373438 178.21,85.7373438 C180.03,86.6373438 182.24,87.0873438 184.84,87.0873438 Z M188.92,78.9273438 C187.92,78.9273438 187.13,78.6773438 186.55,78.1773438 C185.97,77.6773438 185.68,77.0473438 185.68,76.2873438 C185.68,74.4473438 187.06,73.5273438 189.82,73.5273438 L189.82,73.5273438 L193.18,73.5273438 L193.18,75.8073438 C192.82,76.8473437 192.26,77.6273437 191.5,78.1473438 C190.74,78.6673438 189.88,78.9273438 188.92,78.9273438 Z M229.78,74.2473437 L229.78,64.0473438 L211.78,64.0473438 L211.78,74.2473437 L229.78,74.2473437 Z M248.68,87.4473438 C252.96,87.4473438 256.54,86.7673438 259.42,85.4073438 C262.3,84.0473438 264.43,82.2773438 265.81,80.0973438 C267.19,77.9173438 267.88,75.5673438 267.88,73.0473438 C267.88,70.0873438 267.01,67.5573438 265.27,65.4573438 C263.53,63.3573437 261.04,61.9073438 257.8,61.1073438 L257.8,61.1073438 L265.6,53.1873437 L265.6,44.4873438 L234.28,44.4873438 L234.28,55.1673438 L249.28,55.1673438 L243.1,61.4673438 L243.1,70.1673438 L248.68,70.1673438 C252,70.1673438 253.66,71.1273438 253.66,73.0473438 C253.66,74.0873438 253.16,74.8873438 252.16,75.4473438 C251.16,76.0073438 249.84,76.2873438 248.2,76.2873438 C246.36,76.2873438 244.45,76.0273438 242.47,75.5073437 C240.49,74.9873438 238.64,74.2273438 236.92,73.2273438 L236.92,73.2273438 L232.12,83.6673438 C234.32,84.9073437 236.89,85.8473437 239.83,86.4873438 C242.77,87.1273438 245.72,87.4473438 248.68,87.4473438 Z" transform="translate(134.440000, 65.487344) rotate(16.000000) translate(-134.440000, -65.487344) "></path>
                        <path d="M156.446094,531.537188 C160.966094,531.537188 165.026094,530.597188 168.626094,528.717188 C172.226094,526.837188 175.046094,524.227188 177.086094,520.887187 C179.126094,517.547187 180.146094,513.777187 180.146094,509.577188 C180.146094,505.377188 179.126094,501.607188 177.086094,498.267188 C175.046094,494.927188 172.226094,492.317187 168.626094,490.437188 C165.026094,488.557187 160.966094,487.617188 156.446094,487.617188 C151.926094,487.617188 147.866094,488.557187 144.266094,490.437188 C140.666094,492.317187 137.846094,494.927188 135.806094,498.267188 C133.766094,501.607188 132.746094,505.377188 132.746094,509.577188 C132.746094,513.777187 133.766094,517.547187 135.806094,520.887187 C137.846094,524.227188 140.666094,526.837188 144.266094,528.717188 C147.866094,530.597188 151.926094,531.537188 156.446094,531.537188 Z M156.446094,520.077188 C154.686094,520.077188 153.096094,519.647188 151.676094,518.787188 C150.256094,517.927188 149.126094,516.707188 148.286094,515.127187 C147.446094,513.547187 147.026094,511.697187 147.026094,509.577188 C147.026094,507.457188 147.446094,505.607188 148.286094,504.027188 C149.126094,502.447188 150.256094,501.227188 151.676094,500.367188 C153.096094,499.507188 154.686094,499.077188 156.446094,499.077188 C158.206094,499.077188 159.796094,499.507188 161.216094,500.367188 C162.636094,501.227188 163.766094,502.447188 164.606094,504.027188 C165.446094,505.607188 165.866094,507.457188 165.866094,509.577188 C165.866094,511.697187 165.446094,513.547187 164.606094,515.127187 C163.766094,516.707188 162.636094,517.927188 161.216094,518.787188 C159.796094,519.647188 158.206094,520.077188 156.446094,520.077188 Z M196.886094,530.577188 L196.886094,515.577188 L203.606094,527.997187 L209.306094,527.997187 L216.266094,515.877187 L216.326094,530.577188 L228.506094,530.577188 L228.386094,497.757187 L215.666094,497.757187 L206.846094,513.057188 L199.046094,497.757187 L184.706094,497.757187 L184.706094,530.577188 L196.886094,530.577188 Z M252.506094,531.177188 C258.866094,531.177188 263.646094,529.417188 266.846094,525.897188 L266.846094,525.897188 L259.766094,518.757187 C258.606094,519.637187 257.536094,520.257187 256.556094,520.617188 C255.576094,520.977188 254.366094,521.157188 252.926094,521.157188 C251.246094,521.157188 249.846094,520.827188 248.726094,520.167188 C247.606094,519.507188 246.806094,518.557188 246.326094,517.317188 L246.326094,517.317188 L269.126094,517.317188 C269.246094,515.397188 269.306094,514.337188 269.306094,514.137187 C269.306094,510.577188 268.496094,507.517188 266.876094,504.957188 C265.256094,502.397188 263.076094,500.457187 260.336094,499.137187 C257.596094,497.817188 254.566094,497.157188 251.246094,497.157188 C247.726094,497.157188 244.556094,497.877188 241.736094,499.317188 C238.916094,500.757188 236.696094,502.767188 235.076094,505.347188 C233.456094,507.927188 232.646094,510.857188 232.646094,514.137187 C232.646094,517.377187 233.466094,520.297188 235.106094,522.897188 C236.746094,525.497188 239.066094,527.527188 242.066094,528.987188 C245.066094,530.447188 248.546094,531.177188 252.506094,531.177188 Z M256.646094,510.777188 L246.086094,510.777188 C246.366094,509.377188 246.966094,508.297188 247.886094,507.537188 C248.806094,506.777188 249.966094,506.397188 251.366094,506.397188 C252.766094,506.397188 253.926094,506.787188 254.846094,507.567188 C255.766094,508.347188 256.366094,509.417188 256.646094,510.777188 L256.646094,510.777188 Z M287.666094,530.577188 L287.666094,508.317188 L302.846094,508.317188 L302.846094,497.757187 L274.166094,497.757187 L274.166094,530.577188 L287.666094,530.577188 Z M316.586094,531.177188 C321.226094,531.177188 324.326094,529.537188 325.886094,526.257187 L325.886094,526.257187 L325.886094,530.577188 L338.486094,530.577188 L338.486094,512.937188 C338.486094,507.577188 336.966094,503.607188 333.926094,501.027188 C330.886094,498.447188 326.486094,497.157188 320.726094,497.157188 C318.086094,497.157188 315.436094,497.487188 312.776094,498.147188 C310.116094,498.807187 307.846094,499.717187 305.966094,500.877187 L305.966094,500.877187 L310.286094,509.817188 C311.366094,509.017188 312.666094,508.387188 314.186094,507.927188 C315.706094,507.467188 317.206094,507.237188 318.686094,507.237188 C322.366094,507.237188 324.426094,508.517188 324.866094,511.077188 L324.866094,511.077188 L319.406094,511.077188 C314.366094,511.077188 310.606094,511.917188 308.126094,513.597188 C305.646094,515.277187 304.406094,517.737188 304.406094,520.977188 C304.406094,522.897187 304.876094,524.627187 305.816094,526.167188 C306.756094,527.707188 308.136094,528.927188 309.956094,529.827188 C311.776094,530.727188 313.986094,531.177188 316.586094,531.177188 Z M320.666094,523.017188 C319.666094,523.017188 318.876094,522.767188 318.296094,522.267188 C317.716094,521.767188 317.426094,521.137188 317.426094,520.377187 C317.426094,518.537187 318.806094,517.617188 321.566094,517.617188 L321.566094,517.617188 L324.926094,517.617188 L324.926094,519.897188 C324.566094,520.937188 324.006094,521.717188 323.246094,522.237188 C322.486094,522.757188 321.626094,523.017188 320.666094,523.017188 Z M361.526094,518.337188 L361.526094,508.137187 L343.526094,508.137187 L343.526094,518.337188 L361.526094,518.337188 Z M386.126094,531.537188 C389.286094,531.537188 392.166094,530.937188 394.766094,529.737188 C397.366094,528.537188 399.416094,526.817188 400.916094,524.577188 C402.416094,522.337188 403.166094,519.757187 403.166094,516.837188 C403.166094,514.197188 402.506094,511.857188 401.186094,509.817188 C399.866094,507.777188 398.106094,506.197187 395.906094,505.077188 C393.706094,503.957188 391.326094,503.397188 388.766094,503.397188 C385.406094,503.397188 382.626094,504.177188 380.426094,505.737188 C380.906094,503.417188 381.936094,501.647188 383.516094,500.427188 C385.096094,499.207188 387.106094,498.597188 389.546094,498.597188 C392.546094,498.597188 395.086094,499.337188 397.166094,500.817188 L397.166094,500.817188 L402.266094,490.917188 C400.666094,489.877188 398.726094,489.067187 396.446094,488.487188 C394.166094,487.907188 391.766094,487.617188 389.246094,487.617188 C384.606094,487.617188 380.536094,488.537188 377.036094,490.377187 C373.536094,492.217187 370.816094,494.897188 368.876094,498.417188 C366.936094,501.937188 365.966094,506.097188 365.966094,510.897188 C365.966094,515.377187 366.806094,519.157187 368.486094,522.237188 C370.166094,525.317188 372.516094,527.637187 375.536094,529.197188 C378.556094,530.757188 382.086094,531.537188 386.126094,531.537188 Z M385.166094,521.757187 C383.886094,521.757187 382.846094,521.377187 382.046094,520.617188 C381.246094,519.857188 380.846094,518.817188 380.846094,517.497187 C380.846094,516.177188 381.246094,515.127188 382.046094,514.347188 C382.846094,513.567188 383.886094,513.177188 385.166094,513.177188 C386.446094,513.177188 387.486094,513.567188 388.286094,514.347188 C389.086094,515.127188 389.486094,516.177188 389.486094,517.497187 C389.486094,518.817188 389.086094,519.857188 388.286094,520.617188 C387.486094,521.377187 386.446094,521.757187 385.166094,521.757187 Z" id="Омега-6" transform="translate(267.956094, 509.577188) rotate(-4.000000) translate(-267.956094, -509.577188) "></path>
                        <path d="M744.857863,66.92 C749.377863,66.92 753.437863,65.98 757.037863,64.1 C760.637863,62.22 763.457863,59.61 765.497863,56.27 C767.537863,52.93 768.557863,49.16 768.557863,44.96 C768.557863,40.76 767.537863,36.99 765.497863,33.65 C763.457863,30.31 760.637863,27.7 757.037863,25.82 C753.437863,23.94 749.377863,23 744.857863,23 C740.337863,23 736.277863,23.94 732.677863,25.82 C729.077863,27.7 726.257863,30.31 724.217863,33.65 C722.177863,36.99 721.157863,40.76 721.157863,44.96 C721.157863,49.16 722.177863,52.93 724.217863,56.27 C726.257863,59.61 729.077863,62.22 732.677863,64.1 C736.277863,65.98 740.337863,66.92 744.857863,66.92 Z M744.857863,55.46 C743.097863,55.46 741.507863,55.03 740.087863,54.17 C738.667863,53.31 737.537863,52.09 736.697863,50.51 C735.857863,48.93 735.437863,47.08 735.437863,44.96 C735.437863,42.84 735.857863,40.99 736.697863,39.41 C737.537863,37.83 738.667863,36.61 740.087863,35.75 C741.507863,34.89 743.097863,34.46 744.857863,34.46 C746.617863,34.46 748.207863,34.89 749.627863,35.75 C751.047863,36.61 752.177863,37.83 753.017863,39.41 C753.857863,40.99 754.277863,42.84 754.277863,44.96 C754.277863,47.08 753.857863,48.93 753.017863,50.51 C752.177863,52.09 751.047863,53.31 749.627863,54.17 C748.207863,55.03 746.617863,55.46 744.857863,55.46 Z M785.297863,65.96 L785.297863,50.96 L792.017863,63.38 L797.717863,63.38 L804.677863,51.26 L804.737863,65.96 L816.917863,65.96 L816.797863,33.14 L804.077863,33.14 L795.257863,48.44 L787.457863,33.14 L773.117863,33.14 L773.117863,65.96 L785.297863,65.96 Z M840.917863,66.56 C847.277863,66.56 852.057863,64.8 855.257863,61.28 L855.257863,61.28 L848.177863,54.14 C847.017863,55.02 845.947863,55.64 844.967863,56 C843.987863,56.36 842.777863,56.54 841.337863,56.54 C839.657863,56.54 838.257863,56.21 837.137863,55.55 C836.017863,54.89 835.217863,53.94 834.737863,52.7 L834.737863,52.7 L857.537863,52.7 C857.657863,50.78 857.717863,49.72 857.717863,49.52 C857.717863,45.96 856.907863,42.9 855.287863,40.34 C853.667863,37.78 851.487863,35.84 848.747863,34.52 C846.007863,33.2 842.977863,32.54 839.657863,32.54 C836.137863,32.54 832.967863,33.26 830.147863,34.7 C827.327863,36.14 825.107863,38.15 823.487863,40.73 C821.867863,43.31 821.057863,46.24 821.057863,49.52 C821.057863,52.76 821.877863,55.68 823.517863,58.28 C825.157863,60.88 827.477863,62.91 830.477863,64.37 C833.477863,65.83 836.957863,66.56 840.917863,66.56 Z M845.057863,46.16 L834.497863,46.16 C834.777863,44.76 835.377863,43.68 836.297863,42.92 C837.217863,42.16 838.377863,41.78 839.777863,41.78 C841.177863,41.78 842.337863,42.17 843.257863,42.95 C844.177863,43.73 844.777863,44.8 845.057863,46.16 L845.057863,46.16 Z M876.077863,65.96 L876.077863,43.7 L891.257863,43.7 L891.257863,33.14 L862.577863,33.14 L862.577863,65.96 L876.077863,65.96 Z M904.997863,66.56 C909.637863,66.56 912.737863,64.92 914.297863,61.64 L914.297863,61.64 L914.297863,65.96 L926.897863,65.96 L926.897863,48.32 C926.897863,42.96 925.377863,38.99 922.337863,36.41 C919.297863,33.83 914.897863,32.54 909.137863,32.54 C906.497863,32.54 903.847863,32.87 901.187863,33.53 C898.527863,34.19 896.257863,35.1 894.377863,36.26 L894.377863,36.26 L898.697863,45.2 C899.777863,44.4 901.077863,43.77 902.597863,43.31 C904.117863,42.85 905.617863,42.62 907.097863,42.62 C910.777863,42.62 912.837863,43.9 913.277863,46.46 L913.277863,46.46 L907.817863,46.46 C902.777863,46.46 899.017863,47.3 896.537863,48.98 C894.057863,50.66 892.817863,53.12 892.817863,56.36 C892.817863,58.28 893.287863,60.01 894.227863,61.55 C895.167863,63.09 896.547863,64.31 898.367863,65.21 C900.187863,66.11 902.397863,66.56 904.997863,66.56 Z M909.077863,58.4 C908.077863,58.4 907.287863,58.15 906.707863,57.65 C906.127863,57.15 905.837863,56.52 905.837863,55.76 C905.837863,53.92 907.217863,53 909.977863,53 L909.977863,53 L913.337863,53 L913.337863,55.28 C912.977863,56.32 912.417863,57.1 911.657863,57.62 C910.897863,58.14 910.037863,58.4 909.077863,58.4 Z M949.937863,53.72 L949.937863,43.52 L931.937863,43.52 L931.937863,53.72 L949.937863,53.72 Z M968.837863,66.92 C973.117863,66.92 976.697863,66.24 979.577863,64.88 C982.457863,63.52 984.587863,61.75 985.967863,59.57 C987.347863,57.39 988.037863,55.04 988.037863,52.52 C988.037863,49.56 987.167863,47.03 985.427863,44.93 C983.687863,42.83 981.197863,41.38 977.957863,40.58 L977.957863,40.58 L985.757863,32.66 L985.757863,23.96 L954.437863,23.96 L954.437863,34.64 L969.437863,34.64 L963.257863,40.94 L963.257863,49.64 L968.837863,49.64 C972.157863,49.64 973.817863,50.6 973.817863,52.52 C973.817863,53.56 973.317863,54.36 972.317863,54.92 C971.317863,55.48 969.997863,55.76 968.357863,55.76 C966.517863,55.76 964.607863,55.5 962.627863,54.98 C960.647863,54.46 958.797863,53.7 957.077863,52.7 L957.077863,52.7 L952.277863,63.14 C954.477863,64.38 957.047863,65.32 959.987863,65.96 C962.927863,66.6 965.877863,66.92 968.837863,66.92 Z" transform="translate(854.597863, 44.960000) rotate(-10.000000) translate(-854.597863, -44.960000) "></path>
                        <path d="M724.166457,591.537188 C728.686457,591.537188 732.746457,590.597188 736.346457,588.717188 C739.946457,586.837188 742.766457,584.227188 744.806457,580.887187 C746.846457,577.547187 747.866457,573.777187 747.866457,569.577188 C747.866457,565.377188 746.846457,561.607188 744.806457,558.267188 C742.766457,554.927188 739.946457,552.317188 736.346457,550.437188 C732.746457,548.557188 728.686457,547.617188 724.166457,547.617188 C719.646457,547.617188 715.586457,548.557188 711.986457,550.437188 C708.386457,552.317188 705.566457,554.927188 703.526457,558.267188 C701.486457,561.607188 700.466457,565.377188 700.466457,569.577188 C700.466457,573.777187 701.486457,577.547187 703.526457,580.887187 C705.566457,584.227188 708.386457,586.837188 711.986457,588.717188 C715.586457,590.597188 719.646457,591.537188 724.166457,591.537188 Z M724.166457,580.077188 C722.406457,580.077188 720.816457,579.647188 719.396457,578.787188 C717.976457,577.927188 716.846457,576.707188 716.006457,575.127187 C715.166457,573.547187 714.746457,571.697188 714.746457,569.577188 C714.746457,567.457188 715.166457,565.607188 716.006457,564.027188 C716.846457,562.447188 717.976457,561.227188 719.396457,560.367188 C720.816457,559.507187 722.406457,559.077188 724.166457,559.077188 C725.926457,559.077188 727.516457,559.507187 728.936457,560.367188 C730.356457,561.227188 731.486457,562.447188 732.326457,564.027188 C733.166457,565.607188 733.586457,567.457188 733.586457,569.577188 C733.586457,571.697188 733.166457,573.547187 732.326457,575.127187 C731.486457,576.707188 730.356457,577.927188 728.936457,578.787188 C727.516457,579.647188 725.926457,580.077188 724.166457,580.077188 Z M764.606457,590.577188 L764.606457,575.577188 L771.326457,587.997187 L777.026457,587.997187 L783.986457,575.877187 L784.046457,590.577188 L796.226457,590.577188 L796.106457,557.757187 L783.386457,557.757187 L774.566457,573.057188 L766.766457,557.757187 L752.426457,557.757187 L752.426457,590.577188 L764.606457,590.577188 Z M820.226457,591.177188 C826.586457,591.177188 831.366457,589.417188 834.566457,585.897188 L834.566457,585.897188 L827.486457,578.757187 C826.326457,579.637187 825.256457,580.257187 824.276457,580.617188 C823.296457,580.977188 822.086457,581.157188 820.646457,581.157188 C818.966457,581.157188 817.566457,580.827188 816.446457,580.167188 C815.326457,579.507188 814.526457,578.557188 814.046457,577.317188 L814.046457,577.317188 L836.846457,577.317188 C836.966457,575.397188 837.026457,574.337188 837.026457,574.137187 C837.026457,570.577188 836.216457,567.517188 834.596457,564.957188 C832.976457,562.397187 830.796457,560.457188 828.056457,559.137187 C825.316457,557.817188 822.286457,557.157188 818.966457,557.157188 C815.446457,557.157188 812.276457,557.877188 809.456457,559.317188 C806.636457,560.757187 804.416457,562.767187 802.796457,565.347188 C801.176457,567.927188 800.366457,570.857188 800.366457,574.137187 C800.366457,577.377187 801.186457,580.297188 802.826457,582.897188 C804.466457,585.497188 806.786457,587.527188 809.786457,588.987188 C812.786457,590.447188 816.266457,591.177188 820.226457,591.177188 Z M824.366457,570.777188 L813.806457,570.777188 C814.086457,569.377188 814.686457,568.297188 815.606457,567.537188 C816.526457,566.777188 817.686457,566.397188 819.086457,566.397188 C820.486457,566.397188 821.646457,566.787188 822.566457,567.567188 C823.486457,568.347188 824.086457,569.417188 824.366457,570.777188 L824.366457,570.777188 Z M855.386457,590.577188 L855.386457,568.317188 L870.566457,568.317188 L870.566457,557.757187 L841.886457,557.757187 L841.886457,590.577188 L855.386457,590.577188 Z M884.306457,591.177188 C888.946457,591.177188 892.046457,589.537188 893.606457,586.257187 L893.606457,586.257187 L893.606457,590.577188 L906.206457,590.577188 L906.206457,572.937188 C906.206457,567.577188 904.686457,563.607188 901.646457,561.027188 C898.606457,558.447188 894.206457,557.157188 888.446457,557.157188 C885.806457,557.157188 883.156457,557.487188 880.496457,558.147188 C877.836457,558.807188 875.566457,559.717188 873.686457,560.877187 L873.686457,560.877187 L878.006457,569.817188 C879.086457,569.017187 880.386457,568.387187 881.906457,567.927188 C883.426457,567.467188 884.926457,567.237188 886.406457,567.237188 C890.086457,567.237188 892.146457,568.517187 892.586457,571.077188 L892.586457,571.077188 L887.126457,571.077188 C882.086457,571.077188 878.326457,571.917188 875.846457,573.597188 C873.366457,575.277187 872.126457,577.737188 872.126457,580.977188 C872.126457,582.897187 872.596457,584.627187 873.536457,586.167188 C874.476457,587.707188 875.856457,588.927188 877.676457,589.827188 C879.496457,590.727188 881.706457,591.177188 884.306457,591.177188 Z M888.386457,583.017188 C887.386457,583.017188 886.596457,582.767188 886.016457,582.267188 C885.436457,581.767188 885.146457,581.137188 885.146457,580.377187 C885.146457,578.537187 886.526457,577.617188 889.286457,577.617188 L889.286457,577.617188 L892.646457,577.617188 L892.646457,579.897188 C892.286457,580.937188 891.726457,581.717188 890.966457,582.237188 C890.206457,582.757188 889.346457,583.017188 888.386457,583.017188 Z M929.246457,578.337188 L929.246457,568.137187 L911.246457,568.137187 L911.246457,578.337188 L929.246457,578.337188 Z M953.846457,591.537188 C957.006457,591.537188 959.886457,590.937188 962.486457,589.737188 C965.086457,588.537188 967.136457,586.817188 968.636457,584.577188 C970.136457,582.337188 970.886457,579.757187 970.886457,576.837188 C970.886457,574.197188 970.226457,571.857188 968.906457,569.817188 C967.586457,567.777187 965.826457,566.197188 963.626457,565.077188 C961.426457,563.957188 959.046457,563.397188 956.486457,563.397188 C953.126457,563.397188 950.346457,564.177188 948.146457,565.737188 C948.626457,563.417187 949.656457,561.647187 951.236457,560.427188 C952.816457,559.207188 954.826457,558.597188 957.266457,558.597188 C960.266457,558.597188 962.806457,559.337188 964.886457,560.817188 L964.886457,560.817188 L969.986457,550.917188 C968.386457,549.877187 966.446457,549.067188 964.166457,548.487188 C961.886457,547.907187 959.486457,547.617188 956.966457,547.617188 C952.326457,547.617188 948.256457,548.537187 944.756457,550.377187 C941.256457,552.217188 938.536457,554.897187 936.596457,558.417188 C934.656457,561.937188 933.686457,566.097188 933.686457,570.897188 C933.686457,575.377187 934.526457,579.157187 936.206457,582.237188 C937.886457,585.317188 940.236457,587.637187 943.256457,589.197188 C946.276457,590.757188 949.806457,591.537188 953.846457,591.537188 Z M952.886457,581.757187 C951.606457,581.757187 950.566457,581.377187 949.766457,580.617188 C948.966457,579.857188 948.566457,578.817188 948.566457,577.497187 C948.566457,576.177188 948.966457,575.127188 949.766457,574.347188 C950.566457,573.567188 951.606457,573.177188 952.886457,573.177188 C954.166457,573.177188 955.206457,573.567188 956.006457,574.347188 C956.806457,575.127188 957.206457,576.177188 957.206457,577.497187 C957.206457,578.817188 956.806457,579.857188 956.006457,580.617188 C955.206457,581.377187 954.166457,581.757187 952.886457,581.757187 Z" id="Омега-6" transform="translate(835.676457, 569.577188) rotate(-4.000000) translate(-835.676457, -569.577188) "></path>
                    </g>
                </g>
            </g>
        </g>
    </g>
</svg>