<?xml version="1.0" encoding="UTF-8"?>
<svg width="812px" height="551px" viewBox="0 0 812 551" version="1.1" xmlns="http://www.w3.org/2000/svg" xmlns:xlink="http://www.w3.org/1999/xlink">
    <!-- Generator: Sketch 63.1 (92452) - https://sketch.com -->
    <title>Zn</title>
    <desc>Created with Sketch.</desc>
    <g id="Page-1" stroke="none" stroke-width="1" fill="none" fill-rule="evenodd" opacity="0.100000001">
        <g id="Desktop-HD" transform="translate(0.000000, -1412.000000)" fill="#FFFFFF" fill-rule="nonzero">
            <g id="Zn" transform="translate(-50.358857, 1401.000000)">
                <path d="M239.858857,59 L239.858857,48.02 L219.698857,48.02 L238.898857,25.7 L238.898857,17 L201.878857,17 L201.878857,27.98 L220.478857,27.98 L201.278857,50.3 L201.278857,59 L239.858857,59 Z M257.138857,59 L257.138857,43.58 C257.138857,41.3 257.608857,39.63 258.548857,38.57 C259.488857,37.51 260.718857,36.98 262.238857,36.98 C264.918857,36.98 266.258857,38.86 266.258857,42.62 L266.258857,42.62 L266.258857,59 L279.818857,59 L279.818857,40.28 C279.818857,35.36 278.588857,31.68 276.128857,29.24 C273.668857,26.8 270.418857,25.58 266.378857,25.58 C264.418857,25.58 262.598857,25.9 260.918857,26.54 C259.238857,27.18 257.758857,28.14 256.478857,29.42 L256.478857,29.42 L256.478857,26.18 L243.578857,26.18 L243.578857,59 L257.138857,59 Z" stroke="#FFFFFF" stroke-width="2" fill-opacity="0" transform="translate(240.548857, 38.000000) rotate(-30.000000) translate(-240.548857, -38.000000) "></path>
                <path d="M691.438857,81.96 C695.638857,81.96 699.208857,81.33 702.148857,80.07 C705.088857,78.81 707.298857,77.11 708.778857,74.97 C710.258857,72.83 710.998857,70.44 710.998857,67.8 C710.998857,64.76 710.188857,62.36 708.568857,60.6 C706.948857,58.84 705.038857,57.57 702.838857,56.79 C700.638857,56.01 697.938857,55.32 694.738857,54.72 C692.258857,54.24 690.478857,53.79 689.398857,53.37 C688.318857,52.95 687.778857,52.32 687.778857,51.48 C687.778857,49.72 689.598857,48.84 693.238857,48.84 C696.918857,48.84 700.818857,49.88 704.938857,51.96 L704.938857,51.96 L709.198857,41.7 C707.078857,40.5 704.628857,39.59 701.848857,38.97 C699.068857,38.35 696.238857,38.04 693.358857,38.04 C689.158857,38.04 685.588857,38.66 682.648857,39.9 C679.708857,41.14 677.498857,42.84 676.018857,45 C674.538857,47.16 673.798857,49.56 673.798857,52.2 C673.798857,55.24 674.598857,57.65 676.198857,59.43 C677.798857,61.21 679.678857,62.49 681.838857,63.27 C683.998857,64.05 686.698857,64.78 689.938857,65.46 C692.458857,65.98 694.268857,66.46 695.368857,66.9 C696.468857,67.34 697.018857,68 697.018857,68.88 C697.018857,69.64 696.598857,70.21 695.758857,70.59 C694.918857,70.97 693.518857,71.16 691.558857,71.16 C689.278857,71.16 686.898857,70.81 684.418857,70.11 C681.938857,69.41 679.698857,68.48 677.698857,67.32 L677.698857,67.32 L673.138857,77.64 C675.258857,78.96 677.968857,80.01 681.268857,80.79 C684.568857,81.57 687.958857,81.96 691.438857,81.96 Z" id="S" stroke="#FFFFFF" stroke-width="2" fill-opacity="0" transform="translate(692.068857, 60.000000) rotate(16.000000) translate(-692.068857, -60.000000) "></path>
                <path d="M778.525184,323.512747 L778.525184,305.032747 L787.645184,319.732747 L793.885184,319.732747 L803.005184,304.372747 L803.125184,323.512747 L816.025184,323.512747 L815.905184,281.512747 L804.265184,281.512747 L790.945184,303.892747 L777.265184,281.512747 L765.625184,281.512747 L765.625184,323.512747 L778.525184,323.512747 Z M839.125184,335.752747 C845.525184,335.752747 850.455184,334.182747 853.915184,331.042747 C857.375184,327.902747 859.105184,323.212747 859.105184,316.972747 L859.105184,316.972747 L859.105184,290.692747 L846.205184,290.692747 L846.205184,294.412747 C844.205184,291.532747 840.965184,290.092747 836.485184,290.092747 C833.685184,290.092747 831.075184,290.742747 828.655184,292.042747 C826.235184,293.342747 824.305184,295.192747 822.865184,297.592747 C821.425184,299.992747 820.705184,302.752747 820.705184,305.872747 C820.705184,308.992747 821.425184,311.762747 822.865184,314.182747 C824.305184,316.602747 826.235184,318.462747 828.655184,319.762747 C831.075184,321.062747 833.685184,321.712747 836.485184,321.712747 C840.485184,321.712747 843.505184,320.552747 845.545184,318.232747 L845.545184,318.232747 L845.545184,318.832747 C845.545184,321.072747 844.925184,322.772747 843.685184,323.932747 C842.445184,325.092747 840.465184,325.672747 837.745184,325.672747 C835.945184,325.672747 834.065184,325.372747 832.105184,324.772747 C830.145184,324.172747 828.525184,323.392747 827.245184,322.432747 L827.245184,322.432747 L822.685184,331.672747 C824.685184,332.992747 827.105184,334.002747 829.945184,334.702747 C832.785184,335.402747 835.845184,335.752747 839.125184,335.752747 Z M840.085184,311.152747 C838.485184,311.152747 837.145184,310.662747 836.065184,309.682747 C834.985184,308.702747 834.445184,307.432747 834.445184,305.872747 C834.445184,304.312747 834.975184,303.052747 836.035184,302.092747 C837.095184,301.132747 838.445184,300.652747 840.085184,300.652747 C841.685184,300.652747 843.015184,301.132747 844.075184,302.092747 C845.135184,303.052747 845.665184,304.312747 845.665184,305.872747 C845.665184,307.432747 845.135184,308.702747 844.075184,309.682747 C843.015184,310.662747 841.685184,311.152747 840.085184,311.152747 Z" id="Mg" stroke="#FFFFFF" stroke-width="2" fill-opacity="0" transform="translate(812.365184, 308.632747) rotate(7.000000) translate(-812.365184, -308.632747) "></path>
                <path d="M44.58,291.743902 L44.58,280.763902 L24.42,280.763902 L43.62,258.443902 L43.62,249.743902 L6.6,249.743902 L6.6,260.723902 L25.2,260.723902 L6,283.043902 L6,291.743902 L44.58,291.743902 Z M61.86,291.743902 L61.86,276.323902 C61.86,274.043902 62.33,272.373902 63.27,271.313902 C64.21,270.253902 65.44,269.723902 66.96,269.723902 C69.64,269.723902 70.98,271.603902 70.98,275.363902 L70.98,275.363902 L70.98,291.743902 L84.54,291.743902 L84.54,273.023902 C84.54,268.103902 83.31,264.423902 80.85,261.983902 C78.39,259.543902 75.14,258.323902 71.1,258.323902 C69.14,258.323902 67.32,258.643902 65.64,259.283902 C63.96,259.923902 62.48,260.883902 61.2,262.163902 L61.2,262.163902 L61.2,258.923902 L48.3,258.923902 L48.3,291.743902 L61.86,291.743902 Z" stroke="#FFFFFF" stroke-width="2" fill-opacity="0" transform="translate(45.270000, 270.743902) rotate(-30.000000) translate(-45.270000, -270.743902) "></path>
                <path d="M496.16,314.703902 C500.36,314.703902 503.93,314.073902 506.87,312.813902 C509.81,311.553902 512.02,309.853902 513.5,307.713902 C514.98,305.573902 515.72,303.183902 515.72,300.543902 C515.72,297.503902 514.91,295.103902 513.29,293.343902 C511.67,291.583902 509.76,290.313902 507.56,289.533902 C505.36,288.753902 502.66,288.063902 499.46,287.463902 C496.98,286.983902 495.2,286.533902 494.12,286.113902 C493.04,285.693902 492.5,285.063902 492.5,284.223902 C492.5,282.463902 494.32,281.583902 497.96,281.583902 C501.64,281.583902 505.54,282.623902 509.66,284.703902 L509.66,284.703902 L513.92,274.443902 C511.8,273.243902 509.35,272.333902 506.57,271.713902 C503.79,271.093902 500.96,270.783902 498.08,270.783902 C493.88,270.783902 490.31,271.403902 487.37,272.643902 C484.43,273.883902 482.22,275.583902 480.74,277.743902 C479.26,279.903902 478.52,282.303902 478.52,284.943902 C478.52,287.983902 479.32,290.393902 480.92,292.173902 C482.52,293.953902 484.4,295.233902 486.56,296.013902 C488.72,296.793902 491.42,297.523902 494.66,298.203902 C497.18,298.723902 498.99,299.203902 500.09,299.643902 C501.19,300.083902 501.74,300.743902 501.74,301.623902 C501.74,302.383902 501.32,302.953902 500.48,303.333902 C499.64,303.713902 498.24,303.903902 496.28,303.903902 C494,303.903902 491.62,303.553902 489.14,302.853902 C486.66,302.153902 484.42,301.223902 482.42,300.063902 L482.42,300.063902 L477.86,310.383902 C479.98,311.703902 482.69,312.753902 485.99,313.533902 C489.29,314.313902 492.68,314.703902 496.16,314.703902 Z" id="S" transform="translate(496.790000, 292.743902) rotate(16.000000) translate(-496.790000, -292.743902) "></path>
                <path d="M607.426328,556.256649 L607.426328,545.276649 L587.266328,545.276649 L606.466328,522.956649 L606.466328,514.256649 L569.446328,514.256649 L569.446328,525.236649 L588.046328,525.236649 L568.846328,547.556649 L568.846328,556.256649 L607.426328,556.256649 Z M624.706328,556.256649 L624.706328,540.836649 C624.706328,538.556649 625.176328,536.886649 626.116328,535.826649 C627.056328,534.766649 628.286328,534.236649 629.806328,534.236649 C632.486328,534.236649 633.826328,536.116649 633.826328,539.876649 L633.826328,539.876649 L633.826328,556.256649 L647.386328,556.256649 L647.386328,537.536649 C647.386328,532.616649 646.156328,528.936649 643.696328,526.496649 C641.236328,524.056649 637.986328,522.836649 633.946328,522.836649 C631.986328,522.836649 630.166328,523.156649 628.486328,523.796649 C626.806328,524.436649 625.326328,525.396649 624.046328,526.676649 L624.046328,526.676649 L624.046328,523.436649 L611.146328,523.436649 L611.146328,556.256649 L624.706328,556.256649 Z" stroke="#FFFFFF" stroke-width="2" fill-opacity="0" transform="translate(608.116328, 535.256649) rotate(7.000000) translate(-608.116328, -535.256649) "></path>
                <path d="M255.16,532.703902 C259.36,532.703902 262.93,532.073902 265.87,530.813902 C268.81,529.553902 271.02,527.853902 272.5,525.713902 C273.98,523.573902 274.72,521.183902 274.72,518.543902 C274.72,515.503902 273.91,513.103902 272.29,511.343902 C270.67,509.583902 268.76,508.313902 266.56,507.533902 C264.36,506.753902 261.66,506.063902 258.46,505.463902 C255.98,504.983902 254.2,504.533902 253.12,504.113902 C252.04,503.693902 251.5,503.063902 251.5,502.223902 C251.5,500.463902 253.32,499.583902 256.96,499.583902 C260.64,499.583902 264.54,500.623902 268.66,502.703902 L268.66,502.703902 L272.92,492.443902 C270.8,491.243902 268.35,490.333902 265.57,489.713902 C262.79,489.093902 259.96,488.783902 257.08,488.783902 C252.88,488.783902 249.31,489.403902 246.37,490.643902 C243.43,491.883902 241.22,493.583902 239.74,495.743902 C238.26,497.903902 237.52,500.303902 237.52,502.943902 C237.52,505.983902 238.32,508.393902 239.92,510.173902 C241.52,511.953902 243.4,513.233902 245.56,514.013902 C247.72,514.793902 250.42,515.523902 253.66,516.203902 C256.18,516.723902 257.99,517.203902 259.09,517.643902 C260.19,518.083902 260.74,518.743902 260.74,519.623902 C260.74,520.383902 260.32,520.953902 259.48,521.333902 C258.64,521.713902 257.24,521.903902 255.28,521.903902 C253,521.903902 250.62,521.553902 248.14,520.853902 C245.66,520.153902 243.42,519.223902 241.42,518.063902 L241.42,518.063902 L236.86,528.383902 C238.98,529.703902 241.69,530.753902 244.99,531.533902 C248.29,532.313902 251.68,532.703902 255.16,532.703902 Z" id="S" stroke="#FFFFFF" stroke-width="2" fill-opacity="0" transform="translate(255.790000, 510.743902) rotate(16.000000) translate(-255.790000, -510.743902) "></path>
            </g>
        </g>
    </g>
</svg>